<?xml version="1.0" encoding="iso-8859-1"?>
<!-- Generator: Adobe Illustrator 16.0.0, SVG Export Plug-In . SVG Version: 6.00 Build 0)  -->
<!DOCTYPE svg PUBLIC "-//W3C//DTD SVG 1.1//EN" "http://www.w3.org/Graphics/SVG/1.1/DTD/svg11.dtd">
<svg version="1.1" id="Layer_1" xmlns="http://www.w3.org/2000/svg" xmlns:xlink="http://www.w3.org/1999/xlink" x="0px" y="0px"
	 width="32px" height="32px" viewBox="0 0 32 32" style="enable-background:new 0 0 32 32;" xml:space="preserve">
<path style="fill:#E45600;" d="M24.623,0c-1.373,0-2.097,0.597-2.097,2.079v12.276L9.04,0.886C8.136,0,7.123,0,6.039,0.886
	c-1.013,0.904-1.013,1.953,0,2.839l12.004,12.131L6.039,27.987c-1.013,0.868-1.013,1.916,0,2.82c1.084,0.903,1.953,0.903,3.001,0
	l13.487-13.47v12.565c0,1.338,0.724,2.097,2.097,2.097c1.302,0,2.098-0.759,2.098-2.097V2.079C26.721,0.741,26.105,0.145,24.623,0z"
	/>
</svg>
