<?xml version="1.0" encoding="iso-8859-1"?>
<!-- Generator: Adobe Illustrator 16.0.0, SVG Export Plug-In . SVG Version: 6.00 Build 0)  -->
<!DOCTYPE svg PUBLIC "-//W3C//DTD SVG 1.1//EN" "http://www.w3.org/Graphics/SVG/1.1/DTD/svg11.dtd">
<svg version="1.1" id="Layer_1" xmlns="http://www.w3.org/2000/svg" xmlns:xlink="http://www.w3.org/1999/xlink" x="0px" y="0px"
	 width="32px" height="32px" viewBox="0 0 32 32" style="enable-background:new 0 0 32 32;" xml:space="preserve">
<g>
	<path style="fill:#E45600;" d="M25.77,0.755C25.937,0.755,25.937,0.587,25.77,0.755L25.77,0.755L25.77,0.755z"/>
	<path style="fill:#E45600;" d="M30.963,25.529l-9.34-9.361l0,0l-0.335-0.335l0.335-0.356l0,0l9.34-9.34
		c1.55-1.403,1.215-2.953-0.544-4.691c-1.676-1.738-3.268-1.906-4.482-0.523l0,0l-9.884,9.884L6.209,0.922
		C4.786-0.46,3.236-0.292,1.519,1.446C-0.24,3.184-0.576,4.734,1.016,6.137L10.858,16l-9.842,9.885
		c-1.592,1.382-1.256,2.974,0.502,4.649c1.717,1.759,3.267,1.927,4.691,0.544l9.843-9.885l9.884,9.885l0,0
		c1.383,1.215,2.975,1.048,4.482-0.544C32.346,28.482,32.513,26.933,30.963,25.529z"/>
	<path style="fill:#E45600;" d="M25.937,30.744L25.937,30.744L25.937,30.744L25.937,30.744z"/>
</g>
</svg>
