<?xml version="1.0" encoding="iso-8859-1"?>
<!-- Generator: Adobe Illustrator 16.0.0, SVG Export Plug-In . SVG Version: 6.00 Build 0)  -->
<!DOCTYPE svg PUBLIC "-//W3C//DTD SVG 1.1//EN" "http://www.w3.org/Graphics/SVG/1.1/DTD/svg11.dtd">
<svg version="1.1" id="Layer_1" xmlns="http://www.w3.org/2000/svg" xmlns:xlink="http://www.w3.org/1999/xlink" x="0px" y="0px"
	 width="32px" height="32px" viewBox="0 0 32 32" style="enable-background:new 0 0 32 32;" xml:space="preserve">
<path style="fill:#333333;" d="M15.993,0C7.133,0-0.003,7.191-0.003,15.989C-0.003,24.864,7.188,32,15.993,32
	c8.806,0,16.011-7.191,16.011-16.011C32.004,7.191,24.799,0,15.993,0z M20.891,9.493c0,0.174-0.07,0.229-0.238,0.229
	c-0.75,0-1.432,0-2.184,0c-0.625,0-1.043,0.404-1.043,1.037s0,1.266,0,1.898c0,0.174,0.057,0.174,0.182,0.174
	c1.043,0,2.016,0,3.045,0c0.168,0,0.238,0.056,0.168,0.174c-0.111,1.036-0.223,2.065-0.391,3.053c0,0.111-0.109,0.111-0.166,0.111
	c-0.584,0-1.225,0-1.795,0c-0.291,0-0.57,0-0.861,0c-0.182,0-0.236,0.056-0.236,0.236c0,1.559,0,3.158,0,4.771s0,3.157,0,4.771
	c0,0.181-0.057,0.236-0.223,0.236c-1.385,0-2.706,0-4.09,0c-0.174,0-0.229-0.056-0.229-0.236c0-3.158,0-6.315,0-9.487
	c0-0.167-0.056-0.236-0.229-0.236c-0.577,0-1.21,0-1.78,0c-0.118,0-0.174-0.056-0.174-0.167c0-0.988,0-2.017,0-2.998
	c0-0.174,0.056-0.174,0.174-0.174c0.57,0,1.203,0,1.78,0c0.174,0,0.229-0.056,0.229-0.229c0-0.862,0-1.78,0-2.643
	c0-0.751,0.174-1.496,0.633-2.128c0.459-0.695,1.154-1.099,1.898-1.329c0.577-0.174,1.148-0.285,1.788-0.285
	c1.141,0,2.309,0,3.449,0c0.166,0,0.166,0.056,0.166,0.23C20.82,7.421,20.82,8.457,20.891,9.493z"/>
</svg>
