<?xml version="1.0" encoding="utf-8"?>
<!-- Generator: Adobe Illustrator 16.0.0, SVG Export Plug-In . SVG Version: 6.00 Build 0)  -->
<!DOCTYPE svg PUBLIC "-//W3C//DTD SVG 1.1//EN" "http://www.w3.org/Graphics/SVG/1.1/DTD/svg11.dtd">
<svg version="1.1" id="Layer_1" xmlns="http://www.w3.org/2000/svg" xmlns:xlink="http://www.w3.org/1999/xlink" x="0px" y="0px"
	 width="32px" height="32px" viewBox="0 0 32 32" enable-background="new 0 0 32 32" xml:space="preserve">
<path fill="#333333" d="M16.006,0C7.158,0-0.006,7.146-0.006,16c0,8.859,7.164,16,16.012,16c8.85,0,16-7.141,16-16
	C32.006,7.146,24.855,0,16.006,0z M16.246,25.676h-0.168c-2.428,0-4.785-0.9-6.574-2.607c-0.158-0.158-0.242-0.408-0.242-0.576
	c0-0.482,0.408-0.807,0.807-0.807c0.252,0,0.418,0.084,0.576,0.24c1.455,1.383,3.402,2.115,5.361,2.115h0.156
	c3.248,0,5.855-2.596,5.855-5.844c0-3.249-2.607-5.852-5.855-5.852h-0.396c-0.732,0-1.383,0.648-1.383,1.382
	c0,0.728,0.65,1.383,1.383,1.383h0.648c1.539,0.162,2.84,1.46,2.84,3.005c0,1.697-1.373,3.006-3.008,3.006H15.85
	c-4.146,0-7.479-3.332-7.479-7.478c0-4.141,3.332-7.471,7.479-7.471h0.229c2.523,0,4.965,0.974,6.828,2.843
	c0.168,0.162,0.252,0.408,0.252,0.57c0,0.487-0.408,0.812-0.816,0.812c-0.252,0-0.408-0.084-0.566-0.246
	c-1.549-1.461-3.498-2.356-5.613-2.356h-0.24c-3.172,0-5.854,2.603-5.854,5.849c0,3.167,2.607,5.854,5.854,5.854h0.408
	c0.732,0,1.383-0.65,1.383-1.383c0-0.734-0.65-1.383-1.383-1.383h-0.648c-1.551-0.162-2.85-1.46-2.85-3.005
	c0-1.544,1.215-2.927,2.766-3.006h0.732h0.242c4.062,0.163,7.234,3.408,7.234,7.476C23.723,22.334,20.395,25.676,16.246,25.676z"/>
</svg>
