<?xml version="1.0" encoding="utf-8"?>
<!-- Generator: Adobe Illustrator 16.0.0, SVG Export Plug-In . SVG Version: 6.00 Build 0)  -->
<!DOCTYPE svg PUBLIC "-//W3C//DTD SVG 1.1//EN" "http://www.w3.org/Graphics/SVG/1.1/DTD/svg11.dtd">
<svg version="1.1" id="Layer_1" xmlns="http://www.w3.org/2000/svg" xmlns:xlink="http://www.w3.org/1999/xlink" x="0px" y="0px"
	 width="32px" height="32px" viewBox="0 0 32 32" enable-background="new 0 0 32 32" xml:space="preserve">
<path fill="#333333" d="M16.742,7.327h-0.408h-1.15c-2.55,0.244-4.607,2.375-4.607,5.015c0,2.545,2.057,4.761,4.607,5.016h1.15
	c1.242,0,2.301,0.985,2.301,2.301c0,1.229-0.985,2.312-2.301,2.312h-0.657c-5.264,0-9.627-4.283-9.627-9.628
	c0-5.27,4.278-9.627,9.627-9.627h0.408c3.462,0,6.833,1.4,9.293,3.87c0.255,0.244,0.573,0.403,0.997,0.403
	c0.731,0,1.389-0.572,1.389-1.399c0-0.403-0.158-0.731-0.413-0.976C24.318,1.644,20.363,0,16.168,0h-0.492
	C8.848,0,3.334,5.514,3.334,12.342s5.514,12.342,12.342,12.342h0.737c2.793,0,5.02-2.227,5.02-5.025
	c0-2.556-2.057-4.771-4.607-5.015h-1.15c-1.235,0-2.306-0.986-2.306-2.301c0-1.24,0.986-2.3,2.306-2.3h0.737
	c5.264,0,9.623,4.272,9.623,9.617c0,5.259-4.273,9.628-9.623,9.628h-0.329c-3.287,0-6.415-1.23-8.88-3.457
	c-0.25-0.255-0.578-0.413-0.992-0.413c-0.737,0-1.394,0.583-1.394,1.399c0,0.328,0.164,0.742,0.408,0.986
	C8.19,30.516,12.055,32,16.005,32h0.329c6.829,0,12.332-5.514,12.332-12.342C28.75,12.915,23.491,7.486,16.742,7.327z"/>
</svg>
