<?xml version="1.0" encoding="utf-8"?>
<!-- Generator: Adobe Illustrator 16.0.0, SVG Export Plug-In . SVG Version: 6.00 Build 0)  -->
<!DOCTYPE svg PUBLIC "-//W3C//DTD SVG 1.1//EN" "http://www.w3.org/Graphics/SVG/1.1/DTD/svg11.dtd">
<svg version="1.1" id="Layer_1" xmlns="http://www.w3.org/2000/svg" xmlns:xlink="http://www.w3.org/1999/xlink" x="0px" y="0px"
	 width="32px" height="32px" viewBox="0 0 32 32" enable-background="new 0 0 32 32" xml:space="preserve">
<path d="M6.467,13.728c2.612,5.003,6.694,9.073,11.691,11.691l3.863-3.863c0.453-0.453,1.141-0.688,1.814-0.453
	c2.047,0.673,4.082,1.024,6.35,1.024c1.023,0,1.814,0.79,1.814,1.814v6.248c0,1.01-0.791,1.814-1.814,1.814
	C13.505,32.004,0,18.498,0,1.81c0-1.024,0.79-1.814,1.814-1.814h6.241c1.024,0,1.814,0.79,1.814,1.814
	c0,2.268,0.344,4.309,1.024,6.358c0.228,0.563,0,1.361-0.454,1.814L6.467,13.728z"/>
</svg>
