<?xml version="1.0" encoding="iso-8859-1"?>
<!-- Generator: Adobe Illustrator 16.0.0, SVG Export Plug-In . SVG Version: 6.00 Build 0)  -->
<!DOCTYPE svg PUBLIC "-//W3C//DTD SVG 1.1//EN" "http://www.w3.org/Graphics/SVG/1.1/DTD/svg11.dtd">
<svg version="1.1" id="Layer_1" xmlns="http://www.w3.org/2000/svg" xmlns:xlink="http://www.w3.org/1999/xlink" x="0px" y="0px"
	 width="32px" height="32px" viewBox="0 0 32 32" style="enable-background:new 0 0 32 32;" xml:space="preserve">
<g>
	<path style="fill:#333333;" d="M12.55,22.04c-0.056,0.515,0,1.043,0,1.558C12.55,23.083,12.494,22.555,12.55,22.04z"/>
	<path style="fill:#333333;" d="M12.612,21.178c0,0.125,0.056,0.236-0.062,0.348C12.668,21.414,12.668,21.303,12.612,21.178z"/>
	<path style="fill:#333333;" d="M12.612,20.997C12.668,20.997,12.668,20.997,12.612,20.997
		C12.668,20.997,12.668,20.997,12.612,20.997z"/>
	<path style="fill:#333333;" d="M12.668,20.997L12.668,20.997L12.668,20.997z"/>
	<path style="fill:#333333;" d="M16.006,0C7.146,0,0.003,7.191,0.003,15.989C0.003,24.864,7.202,32,16.006,32
		c8.812,0,15.99-7.191,15.99-16.011C32.065,7.191,24.874,0,16.006,0z M16.751,19.856c0.062,0,0.174-0.056,0.236,0.056
		C16.869,19.968,16.813,19.968,16.751,19.856z M17.154,19.968c0.174,0,0.403,0,0.57,0C17.613,20.023,17.272,20.023,17.154,19.968z
		 M17.961,19.912c0.125-0.111,0.181-0.056,0.292-0.056C18.197,20.023,18.086,19.968,17.961,19.912z M18.42,19.856
		c0.056-0.111,0.111-0.056,0.236-0.056C18.531,19.856,18.476,19.856,18.42,19.856z M22.343,13.764c0,0.39-0.056,0.793-0.126,1.196
		c-0.11,0.584-0.236,1.155-0.459,1.669c-0.403,0.974-0.974,1.836-1.78,2.477c-0.403,0.292-0.807,0.528-1.266,0.695h-0.056
		c-0.069,0-0.181-0.056-0.236,0.056c-0.056,0-0.056,0-0.111,0c-0.111,0-0.223-0.056-0.292,0.056c-0.056,0-0.111,0-0.236,0
		c-0.167,0-0.396,0-0.563,0c-0.062,0-0.118,0-0.174,0c-0.056-0.111-0.118-0.056-0.229-0.056c-0.521-0.111-0.925-0.348-1.266-0.695
		c-0.118-0.111-0.174-0.223-0.292-0.334c-0.056,0.111-0.056,0.223-0.111,0.39c-0.062,0.348-0.174,0.695-0.229,1.043
		c-0.062,0.348-0.174,0.682-0.229,1.043c-0.118,0.445-0.236,0.862-0.466,1.308c-0.285,0.64-0.57,1.225-0.974,1.725
		c-0.063,0.125-0.174,0.236-0.23,0.362c-0.118,0.111-0.174,0.111-0.292,0c0.118,0.111,0.174,0.056,0.292,0
		c0,0.111-0.062,0.167-0.174,0.167c-0.056,0-0.174-0.056-0.118-0.167c0-0.07,0-0.126,0-0.182l0,0
		c-0.111-0.125-0.056-0.292-0.056-0.459c0.056,0.111,0.056,0.167,0.056,0.278c0-0.111,0-0.167-0.056-0.278c0-0.056,0-0.167,0-0.222
		c-0.056-0.07-0.056-0.182-0.056-0.237c0-0.57,0-1.099,0-1.669c0-0.069,0-0.125,0.056-0.181c0-0.056,0-0.167,0-0.223
		c0-0.111-0.056-0.223,0.056-0.348c0-0.056,0-0.056,0-0.111c-0.056-0.125,0-0.181,0.062-0.236v-0.056c0-0.111,0-0.167,0.056-0.223
		c0,0.056,0,0.111,0,0.111c0-0.056,0-0.111,0-0.111v-0.056c0-0.125,0-0.181,0.056-0.236v0.056V20.26c0-0.069,0-0.069,0-0.125l0,0
		c0-0.111,0-0.167,0.056-0.223l0,0c0.062-0.278,0.118-0.584,0.174-0.862c0.056-0.223,0.119-0.459,0.174-0.751
		c0.056-0.404,0.174-0.808,0.23-1.196c0.055-0.418,0.174-0.807,0.229-1.225c0-0.056,0.056-0.111,0.056-0.111
		c0-0.111,0-0.222-0.056-0.333c-0.174-0.64-0.285-1.335-0.174-2.024c0.063-0.459,0.174-0.862,0.466-1.21
		c0.341-0.515,0.862-0.862,1.495-0.744c0.459,0.056,0.8,0.403,0.918,0.862c0.118,0.459,0.118,0.863,0,1.322
		c-0.118,0.57-0.285,1.099-0.459,1.669c-0.056,0.292-0.174,0.626-0.229,0.918c-0.056,0.181-0.056,0.403-0.118,0.57
		c0,0.236,0,0.473,0.118,0.695c0.174,0.348,0.459,0.641,0.807,0.752c0.285,0.111,0.633,0.111,0.974,0.056
		c0.459-0.111,0.807-0.334,1.099-0.641c0.403-0.39,0.626-0.862,0.862-1.363c0.236-0.529,0.348-1.113,0.459-1.669
		c0.111-0.695,0.167-1.391,0.111-2.135c-0.056-0.696-0.278-1.329-0.751-1.899c-0.334-0.403-0.751-0.751-1.252-0.98
		c-0.361-0.174-0.758-0.229-1.099-0.292c-0.403-0.056-0.807-0.056-1.21,0c-0.459,0.063-0.862,0.174-1.328,0.348
		c-0.57,0.229-1.037,0.577-1.433,1.036c-0.403,0.459-0.695,0.918-0.925,1.495c-0.111,0.403-0.229,0.751-0.285,1.155
		c-0.062,0.285-0.062,0.633-0.062,0.911c0,0.695,0.236,1.335,0.695,1.85c0.111,0.111,0.111,0.236,0.111,0.403
		c-0.056,0.278-0.111,0.585-0.229,0.862c-0.056,0.223-0.285,0.349-0.459,0.223c-0.688-0.334-1.147-0.862-1.439-1.488
		c-0.404-0.932-0.515-1.906-0.404-2.879c0.119-0.981,0.459-1.899,1.037-2.761c0.403-0.633,0.925-1.21,1.558-1.614
		c0.515-0.341,1.037-0.633,1.607-0.807c0.98-0.341,1.961-0.459,2.998-0.341c0.563,0.056,1.147,0.174,1.731,0.403
		c0.682,0.285,1.308,0.688,1.892,1.266c0.348,0.341,0.696,0.744,0.918,1.266c0.167,0.341,0.349,0.744,0.474,1.092
		c0.056,0.229,0.111,0.515,0.167,0.807C22.398,12.776,22.398,13.291,22.343,13.764z"/>
</g>
</svg>
