<?xml version="1.0" encoding="utf-8"?>
<!-- Generator: Adobe Illustrator 16.0.0, SVG Export Plug-In . SVG Version: 6.00 Build 0)  -->
<!DOCTYPE svg PUBLIC "-//W3C//DTD SVG 1.1//EN" "http://www.w3.org/Graphics/SVG/1.1/DTD/svg11.dtd">
<svg version="1.1" id="Layer_1" xmlns="http://www.w3.org/2000/svg" xmlns:xlink="http://www.w3.org/1999/xlink" x="0px" y="0px"
	 width="32px" height="32px" viewBox="0 0 32 32" enable-background="new 0 0 32 32" xml:space="preserve">
<path d="M15.997-0.003c-8.762,0-16,7.133-16,16c0,8.86,7.133,16.006,16,16.006c8.755,0,16.006-7.146,16.006-16.006
	C32.003,7.13,24.857-0.003,15.997-0.003z M15.997,4.785c2.646,0,4.788,2.141,4.788,4.788c0,2.653-2.142,4.788-4.788,4.788
	c-2.647,0-4.788-2.135-4.788-4.788C11.209,6.926,13.35,4.785,15.997,4.785z M15.997,27.405c-3.974,0-7.54-2.036-9.583-5.097
	c0-3.152,6.424-4.887,9.583-4.887s9.478,1.734,9.569,4.887C23.543,25.369,19.971,27.405,15.997,27.405z"/>
</svg>
