<?xml version="1.0" encoding="utf-8"?>
<!-- Generator: Adobe Illustrator 16.0.0, SVG Export Plug-In . SVG Version: 6.00 Build 0)  -->
<!DOCTYPE svg PUBLIC "-//W3C//DTD SVG 1.1//EN" "http://www.w3.org/Graphics/SVG/1.1/DTD/svg11.dtd">
<svg version="1.1" id="Layer_1" xmlns="http://www.w3.org/2000/svg" xmlns:xlink="http://www.w3.org/1999/xlink" x="0px" y="0px"
	 width="32px" height="32px" viewBox="0 0 32 32" enable-background="new 0 0 32 32" xml:space="preserve">
<g>
	<path fill="#333333" d="M32,12.931c0,3.616-1.3,6.584-3.828,9.098c-2.522,2.516-5.589,3.842-9.099,3.842
		c-3.066,0-5.701-0.988-8.109-2.852l-8.548,8.531c-0.219,0.34-0.551,0.453-0.989,0.453s-0.763-0.113-0.989-0.453
		C0.219,31.34,0,31.014,0,30.576s0.113-0.777,0.438-0.988l8.555-8.547c-1.864-2.402-2.854-5.15-2.854-8.11
		c0-3.617,1.313-6.577,3.836-9.099c2.521-2.521,5.595-3.836,9.099-3.836c3.616,0,6.576,1.314,9.099,3.836
		C30.799,6.241,32,9.314,32,12.931z M30.036,12.931c0-3.073-1.102-5.595-3.179-7.785c-2.084-2.083-4.719-3.178-7.784-3.178
		c-3.066,0-5.588,1.095-7.785,3.178C9.211,7.23,8.117,9.858,8.117,12.931c0,3.065,1.094,5.594,3.171,7.77
		c2.084,2.09,4.719,3.193,7.785,3.193c3.065,0,5.588-1.104,7.784-3.193C29.048,18.525,30.036,15.891,30.036,12.931z"/>
</g>
</svg>
