<?xml version="1.0" encoding="iso-8859-1"?>
<!-- Generator: Adobe Illustrator 16.0.0, SVG Export Plug-In . SVG Version: 6.00 Build 0)  -->
<!DOCTYPE svg PUBLIC "-//W3C//DTD SVG 1.1//EN" "http://www.w3.org/Graphics/SVG/1.1/DTD/svg11.dtd">
<svg version="1.1" id="Layer_1" xmlns="http://www.w3.org/2000/svg" xmlns:xlink="http://www.w3.org/1999/xlink" x="0px" y="0px"
	 width="32px" height="32px" viewBox="0 0 32 32" style="enable-background:new 0 0 32 32;" xml:space="preserve">
<path style="fill:#E45600;" d="M10.89,15.999L21.902,0.69c0.158-0.219,0.158-0.438-0.061-0.596
	c-0.219-0.154-0.406-0.125-0.596,0.125l-11.132,15.5c-0.03,0.03-0.06,0.098-0.098,0.128c-0.03,0.06-0.03,0.09-0.03,0.15
	s0,0.09,0.03,0.158c0.038,0.03,0.068,0.098,0.098,0.128l11.132,15.497c0.158,0.248,0.377,0.278,0.596,0.12
	c0.219-0.15,0.219-0.339,0.061-0.588L10.89,15.999z"/>
</svg>
