<?xml version="1.0" encoding="iso-8859-1"?>
<!-- Generator: Adobe Illustrator 16.0.0, SVG Export Plug-In . SVG Version: 6.00 Build 0)  -->
<!DOCTYPE svg PUBLIC "-//W3C//DTD SVG 1.1//EN" "http://www.w3.org/Graphics/SVG/1.1/DTD/svg11.dtd">
<svg version="1.1" id="Layer_1" xmlns="http://www.w3.org/2000/svg" xmlns:xlink="http://www.w3.org/1999/xlink" x="0px" y="0px"
	 width="32px" height="32px" viewBox="0 0 32 32" style="enable-background:new 0 0 32 32;" xml:space="preserve">
<path style="fill:#E45600;" d="M21.107,15.999L10.095,0.69c-0.15-0.219-0.15-0.437,0.061-0.595c0.226-0.155,0.407-0.125,0.603,0.124
	L21.884,15.72c0.03,0.03,0.061,0.098,0.098,0.128c0.03,0.061,0.03,0.09,0.03,0.151s0,0.09-0.03,0.158
	c-0.037,0.03-0.067,0.098-0.098,0.128L10.758,31.781c-0.166,0.249-0.377,0.279-0.603,0.121c-0.211-0.15-0.211-0.339-0.061-0.588
	L21.107,15.999z"/>
</svg>
