<?xml version="1.0" encoding="iso-8859-1"?>
<!-- Generator: Adobe Illustrator 16.0.0, SVG Export Plug-In . SVG Version: 6.00 Build 0)  -->
<!DOCTYPE svg PUBLIC "-//W3C//DTD SVG 1.1//EN" "http://www.w3.org/Graphics/SVG/1.1/DTD/svg11.dtd">
<svg version="1.1" id="Layer_1" xmlns="http://www.w3.org/2000/svg" xmlns:xlink="http://www.w3.org/1999/xlink" x="0px" y="0px"
	 width="32px" height="32px" viewBox="0 0 32 32" style="enable-background:new 0 0 32 32;" xml:space="preserve">
<path style="fill:#333333;" d="M16.003,0C7.136,0,0,7.191,0,15.989C0,24.864,7.191,32,16.003,32C24.864,32,32,24.809,32,15.989
	C32,7.191,24.864,0,16.003,0z M24.517,11.622c-0.349,0.403-0.696,0.751-1.155,1.036c-0.056,0.063-0.111,0.118-0.111,0.229
	c0,0.751-0.056,1.433-0.181,2.128c-0.111,0.751-0.334,1.446-0.626,2.198c-0.348,0.751-0.751,1.488-1.266,2.184
	c-0.64,0.862-1.391,1.6-2.253,2.184c-1.141,0.807-2.463,1.391-3.847,1.613c-0.862,0.167-1.787,0.223-2.65,0.167
	c-0.688-0.056-1.377-0.111-2.01-0.278c-0.807-0.236-1.614-0.528-2.365-0.987c-0.167-0.056-0.341-0.167-0.515-0.292
	c1.954,0.181,3.679-0.278,5.292-1.488c-0.403,0-0.744-0.056-1.092-0.236c-0.918-0.334-1.551-0.918-2.017-1.78
	c-0.056-0.111-0.111-0.223-0.174-0.404c-0.056-0.11,0-0.166,0.118-0.11c0.459,0.055,0.863,0.055,1.322-0.056l0,0
	c0-0.07,0-0.07-0.056-0.07c-0.981-0.223-1.725-0.807-2.247-1.725c-0.285-0.5-0.459-1.029-0.459-1.613
	c0-0.167,0.056-0.167,0.174-0.111c0.459,0.236,0.918,0.348,1.44,0.348c-0.229-0.236-0.522-0.403-0.689-0.626
	c-0.695-0.807-0.98-1.788-0.869-2.879c0.062-0.403,0.174-0.751,0.348-1.155c0.056-0.111,0.118-0.174,0.229,0
	c0.577,0.696,1.266,1.322,2.017,1.843c0.577,0.403,1.147,0.688,1.78,0.981c0.807,0.34,1.614,0.57,2.476,0.744
	c0.285,0.062,0.577,0.062,0.869,0.118c0.111,0,0.167-0.056,0.111-0.174c-0.111-0.751-0.056-1.496,0.278-2.191
	c0.528-1.092,1.336-1.725,2.532-2.01c1.168-0.229,2.197,0.056,3.115,0.744c0.292,0.466,0.695,0.174,0.974,0.119
	c0.528-0.174,1.043-0.404,1.503-0.633c-0.223,0.807-0.752,1.44-1.447,1.899c0.695-0.056,1.28-0.229,1.962-0.515
	C24.92,11.163,24.738,11.392,24.517,11.622z"/>
</svg>
